<svg xmlns="http://www.w3.org/2000/svg" xlink="http://www.w3.org/1999/xlink" width="0" height="0" style="display:none;"><symbol viewBox="0 0 24 24" id="bilibili-line"><path fill="none" d="M0 0h24v24H0z"/><path d="M7.172 2.757L10.414 6h3.171l3.243-3.242a1 1 0 0 1 1.415 1.415l-1.829 1.827L18.5 6A3.5 3.5 0 0 1 22 9.5v8a3.5 3.5 0 0 1-3.5 3.5h-13A3.5 3.5 0 0 1 2 17.5v-8A3.5 3.5 0 0 1 5.5 6h2.085L5.757 4.171a1 1 0 0 1 1.415-1.415zM18.5 8h-13a1.5 1.5 0 0 0-1.493 1.356L4 9.5v8a1.5 1.5 0 0 0 1.356 1.493L5.5 19h13a1.5 1.5 0 0 0 1.493-1.356L20 17.5v-8A1.5 1.5 0 0 0 18.5 8zM8 11a1 1 0 0 1 1 1v2a1 1 0 0 1-2 0v-2a1 1 0 0 1 1-1zm8 0a1 1 0 0 1 1 1v2a1 1 0 0 1-2 0v-2a1 1 0 0 1 1-1z"/></symbol><symbol viewBox="0 0 24 24" id="netease-cloud-music-line"><path fill="none" d="M0 0h24v24H0z"/><path d="M10.421 11.375c-.294 1.028.012 2.064.784 2.653 1.061.81 2.565.3 2.874-.995.08-.337.103-.722.027-1.056-.23-1.001-.52-1.988-.792-2.996-1.33.154-2.543 1.172-2.893 2.394zm5.548-.287c.273 1.012.285 2.017-.127 3-1.128 2.69-4.721 3.14-6.573.826-1.302-1.627-1.28-3.961.06-5.734.78-1.032 1.804-1.707 3.048-2.054l.379-.104c-.084-.415-.188-.816-.243-1.224-.176-1.317.512-2.503 1.744-3.04 1.226-.535 2.708-.216 3.53.76.406.479.395 1.08-.025 1.464-.412.377-.996.346-1.435-.09-.247-.246-.51-.44-.877-.436-.525.006-.987.418-.945.937.037.468.173.93.3 1.386.022.078.216.135.338.153 1.334.197 2.504.731 3.472 1.676 2.558 2.493 2.861 6.531.672 9.44-1.529 2.032-3.61 3.168-6.127 3.409-4.621.44-8.664-2.53-9.7-7.058C2.515 10.255 4.84 5.831 8.795 4.25c.586-.234 1.143-.031 1.371.498.232.537-.019 1.086-.61 1.35-2.368 1.06-3.817 2.855-4.215 5.424-.533 3.433 1.656 6.776 5 7.72 2.723.77 5.658-.166 7.308-2.33 1.586-2.08 1.4-5.099-.427-6.873a3.979 3.979 0 0 0-1.823-1.013c.198.716.389 1.388.57 2.062z"/></symbol><symbol viewBox="0 0 24 24" id="qq-line"><path fill="none" d="M0 0h24v24H0z"/><path d="M17.535 12.514l-.696-1.796c0-.021.01-.375.01-.558C16.848 7.088 15.446 4 12 4c-3.446 0-4.848 3.088-4.848 6.16 0 .183.009.537.01.558l-.696 1.796c-.19.515-.38 1.05-.517 1.51-.657 2.189-.444 3.095-.282 3.115.348.043 1.354-1.648 1.354-1.648 0 .98.488 2.258 1.542 3.18-.394.127-.878.32-1.188.557-.28.214-.245.431-.194.52.22.385 3.79.245 4.82.125 1.03.12 4.599.26 4.82-.126.05-.088.085-.305-.194-.519-.311-.237-.795-.43-1.19-.556 1.055-.923 1.542-2.202 1.542-3.181 0 0 1.007 1.691 1.355 1.648.162-.02.378-.928-.283-3.116-.14-.463-.325-.994-.516-1.509zm1.021 8.227c-.373.652-.833.892-1.438 1.057-.24.065-.498.108-.794.138-.44.045-.986.065-1.613.064a33.23 33.23 0 0 1-2.71-.116c-.692.065-1.785.114-2.71.116a16.07 16.07 0 0 1-1.614-.064 4.928 4.928 0 0 1-.793-.138c-.605-.164-1.065-.405-1.44-1.059a2.274 2.274 0 0 1-.239-1.652c-.592-.132-1.001-.483-1.279-.911a2.43 2.43 0 0 1-.309-.71 4.028 4.028 0 0 1-.116-1.106c.013-.785.187-1.762.532-2.912.14-.466.327-1.008.568-1.655l.553-1.43a15.496 15.496 0 0 1-.002-.203C5.152 5.605 7.588 2 12 2c4.413 0 6.848 3.605 6.848 8.16l-.001.203.553 1.43.01.026c.225.606.413 1.153.556 1.626.348 1.15.522 2.129.535 2.916.007.407-.03.776-.118 1.108-.066.246-.161.48-.31.708-.276.427-.684.776-1.277.91.13.554.055 1.14-.24 1.654z"/></symbol><symbol viewBox="0 0 24 24" id="twitter-line"><path fill="none" d="M0 0h24v24H0z"/><path d="M15.3 5.55a2.9 2.9 0 0 0-2.9 2.847l-.028 1.575a.6.6 0 0 1-.68.583l-1.561-.212c-2.054-.28-4.022-1.226-5.91-2.799-.598 3.31.57 5.603 3.383 7.372l1.747 1.098a.6.6 0 0 1 .034.993L7.793 18.17c.947.059 1.846.017 2.592-.131 4.718-.942 7.855-4.492 7.855-10.348 0-.478-1.012-2.141-2.94-2.141zm-4.9 2.81a4.9 4.9 0 0 1 8.385-3.355c.711-.005 1.316.175 2.669-.645-.335 1.64-.5 2.352-1.214 3.331 0 7.642-4.697 11.358-9.463 12.309-3.268.652-8.02-.419-9.382-1.841.694-.054 3.514-.357 5.144-1.55C5.16 15.7-.329 12.47 3.278 3.786c1.693 1.977 3.41 3.323 5.15 4.037 1.158.475 1.442.465 1.973.538z"/></symbol><symbol viewBox="0 0 24 24" id="mail-send-line"><path fill="none" d="M0 0h24v24H0z"/><path d="M22 20.007a1 1 0 0 1-.992.993H2.992A.993.993 0 0 1 2 20.007V19h18V7.3l-8 7.2-10-9V4a1 1 0 0 1 1-1h18a1 1 0 0 1 1 1v16.007zM4.434 5L12 11.81 19.566 5H4.434zM0 15h8v2H0v-2zm0-5h5v2H0v-2z"/></symbol></svg>