<svg style="position: absolute; width: 0; height: 0;" width="0" height="0" version="1.1" xmlns="http://www.w3.org/2000/svg" xmlns:xlink="http://www.w3.org/1999/xlink"><defs><symbol id="bilibililine" viewBox="0 0 1200 1200"><path d="M359 165 q-15 -15 -35.5 -15 q-20.5 0 -35.5 14.5 q-15 14.5 -15 35.5 q0 21 15 36 l91 91 l-104 0 q-48 0 -88 23.5 q-40 23.5 -63.5 63.5 q-23.5 40 -23.5 88 l0 400 q0 48 23.5 88 q23.5 40 63.5 63.5 q40 23.5 88 23.5 l650 0 q48 0 88 -23.5 q40 -23.5 63.5 -63.5 q23.5 -40 23.5 -88 l0 -400 q0 -48 -23.5 -88 q-23.5 -40 -63.5 -63.5 q-40 -23.5 -88 -23.5 l-104 0 l91 -91 q15 -15 15 -35.5 q0 -20.5 -15 -35.5 q-15 -15 -35.5 -15 q-20.5 0 -35.5 15 l-162 162 l-158 0 l-162 -162 ZM925 427 q31 0 53 22 q22 22 22 53 l0 400 l0 7 q-3 29 -24.5 48.5 q-21.5 19.5 -50.5 19.5 l-650 0 l-7 0 q-29 -3 -48.5 -24.5 q-19.5 -21.5 -19.5 -50.5 l0 -400 l0 -7 q3 -29 24.5 -48.5 q21.5 -19.5 50.5 -19.5 l650 0 ZM400 577 q-21 0 -35.5 14.5 q-14.5 14.5 -14.5 35.5 l0 100 q0 21 14.5 35.5 q14.5 14.5 35.5 14.5 q21 0 35.5 -14.5 q14.5 -14.5 14.5 -35.5 l0 -100 q0 -21 -14.5 -35.5 q-14.5 -14.5 -35.5 -14.5 ZM800 577 q-21 0 -35.5 14.5 q-14.5 14.5 -14.5 35.5 l0 100 q0 21 14.5 35.5 q14.5 14.5 35.5 14.5 q21 0 35.5 -14.5 q14.5 -14.5 14.5 -35.5 l0 -100 q0 -21 -14.5 -35.5 q-14.5 -14.5 -35.5 -14.5 Z"></path></symbol><symbol id="neteasecloudmusicline" viewBox="0 0 1200 1200"><path d="M521 568.87 q13 -46 54 -80 q41 -34 91 -40 l11 41 q20 72 28 109 q6 24 -1 53 q-8 31 -32 50 q-24 19 -55 19 q-31 0 -57 -20 q-29 -22 -39.5 -58 q-10.5 -36 0.5 -74 ZM770 450.87 q52 13 91 51 q45 44 63.5 104.5 q18.5 60.5 8 124 q-10.5 63.5 -50.5 115.5 q-40 53 -100 86 q-60 33 -129 41 q-69 8 -136 -11 q-82 -23 -144 -82 q-62 -59 -90 -138 q-29 -81 -16 -166 q29 -190 211 -271 q22 -10 30.5 -28.5 q8.5 -18.5 0 -38.5 q-8.5 -20 -27.5 -27 q-19 -7 -41 1 q-98 39 -168 121 q-68 80 -95 181 q-27 104 -4 206 q26 112 97 197 q71 83 171 124 q103 43 217 32 q192 -19 306 -171 q54 -71 69 -159 q14 -85 -12.5 -168 q-26.5 -83 -89.5 -145 q-70 -68 -174 -83 q-5 -1 -10.5 -3 q-5.5 -2 -6.5 -5 l-1 -5 q-12 -43 -14 -64 q-1 -19 13 -33 q14 -14 34 -14 q13 0 25 6 q9 5 19 16 q17 16 37 17 q20 1 35.5 -13 q15.5 -14 16 -34.5 q0.5 -20.5 -15.5 -38.5 q-30 -37 -80 -47.5 q-50 -10.5 -96 9.5 q-46 20 -70 61.5 q-24 41.5 -17 90.5 q2 14 8 42 l4 19 l-19 5 q-95 27 -153 103 q-33 44 -44.5 95 q-11.5 51 -1 101 q10.5 50 42.5 91 q34 42 83 61 q46 18 95.5 12 q49.5 -6 88.5 -35 q42 -31 62 -80 q29 -68 6 -150 l-28 -103 Z"></path></symbol><symbol id="qqline" viewBox="0 0 1200 1200"><path d="M877 626 q16 43 26 75 q15 50 20 89 q4 31 1 50 q-2 16 -7 17 q-8 1 -26 -20 q-12 -16 -28 -41 l-14 -21 q0 39 -19 80 q-21 46 -58 79 q39 12 59 27 q10 7 11 16 q2 6 -1 10 q-7 13 -105 13 q-83 0 -136 -6 q-53 6 -136 6 q-98 0 -105 -13 q-3 -4 -1 -10 q1 -9 11 -16 q19 -15 59 -27 q-37 -33 -58 -79 q-19 -41 -19 -80 l-14 21 q-16 25 -28 41 q-18 21 -26 20 q-5 -1 -7 -17 q-3 -19 1 -50 q5 -39 20 -89 q9 -28 26 -75 l35 -90 q0 -11 0 -28 q0 -81 24 -148 q27 -73 79 -114 q57 -46 139 -46 q82 0 139 46 q52 41 79 114 q24 67 24 148 l0 28 l35 90 ZM928 1037 q22 -39 12 -83 q40 -9 64 -45 q10 -16 15 -36 q7 -24 6 -55 q-1 -61 -27 -146 q-10 -34 -27 -81 l-29 -73 l0 -10 q0 -115 -39 -207 q-41 -94 -116 -146 q-80 -55 -187 -55 q-107 0 -187 55 q-75 52 -116 146 q-39 92 -39 207 l0 10 l-28 72 q-18 49 -28 82 q-26 86 -27 146 q-1 28 6 55 q5 19 15 36 q24 36 64 45 q-10 44 12 83 q13 23 32 36 q15 10 40 17 q20 5 40 7 q40 3 81 3 q75 0 135 -6 q68 6 136 6 q48 0 80 -3 q23 -3 40 -7 q25 -7 40 -17 q19 -13 32 -36 Z"></path></symbol><symbol id="twitterline" viewBox="0 0 1200 1200"><path d="M765 289.51 q44 0 81 23 q30 18 49 46 q17 24 17 39 q0 143 -49 253 q-48 106 -137 174 q-87 66 -207 90 q-56 11 -129 7 l79 -59 q13 -9 12.5 -25 q-0.5 -16 -13.5 -24 l-88 -55 q-107 -68 -148 -156 q-43 -90 -21 -213 q143 119 296 140 l78 11 q13 2 23 -7 q10 -9 11 -22 l1 -79 q1 -39 20.5 -71.5 q19.5 -32.5 52.5 -52 q33 -19.5 72 -19.5 ZM511 429.51 q-21 -3 -34 -6 q-21 -6 -56 -20 q-130 -53 -257 -202 q-61 147 -60 270 q0 103 43 187 q33 65 91 118 q32 29 82 62 l7 4 q-52 39 -146 61 q-57 13 -111 17 q33 35 114.5 62.5 q81.5 27.5 175.5 35.5 q100 10 179 -6 q127 -25 228 -96 q113 -78 175 -201 q70 -137 70 -318 q25 -35 37 -71 q10 -27 24 -96 q-38 23 -69 30 q-19 4 -48 3 l-17 -1 q-52 -52 -124 -67 q-72 -15 -141 12 q-69 27 -111 88 q-42 61 -43 135 l-9 -1 Z"></path></symbol><symbol id="mailsendline" viewBox="0 0 1200 1200"><path d="M1100 200 q0 -21 -14.5 -35.5 q-14.5 -14.5 -35.5 -14.5 l-900 0 q-21 0 -35.5 14.5 q-14.5 14.5 -14.5 35.5 l0 75 l500 450 l400 -360 l0 585 l-900 0 l0 50 q0 21 14.5 35.5 q14.5 14.5 35.5 14.5 l900 0 q21 0 35.5 -14.5 q14.5 -14.5 14.5 -35.5 l0 -800 ZM978 250 l-378 340 l-378 -340 l756 0 ZM0 850 l400 0 l0 -100 l-400 0 l0 100 ZM0 600 l250 0 l0 -100 l-250 0 l0 100 Z"></path></symbol><symbol id="pixiv" viewBox="0 0 1200 1200"><path d="M678 172 q-276 0 -554 233 q0 56 58 117 l15 0 q41 -146 87 -146 l15 0 l0 613 q-16 0 -44 15 q0 29 29 29 l146 0 l29 -15 q0 -29 -43 -29 l0 -146 q96 44 204 44 l117 0 q295 0 365 -365 q-78 -350 -424 -350 ZM416 318 q17 -58 233 -73 l29 0 q229 0 278 277 q0 292 -263 292 l-88 0 q-189 -10 -189 -58 l0 -438 Z"></path></symbol></defs></svg>