<?xml version="1.0" encoding="utf-8"?>
<!-- Generator: Adobe Illustrator 23.0.2, SVG Export Plug-In . SVG Version: 6.00 Build 0)  -->
<svg version="1.1" id="图层_1" xmlns="http://www.w3.org/2000/svg" xmlns:xlink="http://www.w3.org/1999/xlink" x="0px" y="0px"
	 viewBox="0 0 26 25" style="enable-background:new 0 0 26 25;" xml:space="preserve">
<path d="M19,6.7C17.7,5.6,16,5,14,5C8.6,5,5,9,5,9l1,1.6c0,0,0.6,0,0.3-0.9C6.5,9.2,7,8.6,8,7.8v10.5c-0.4,0.1-1,0.3-0.6,0.7h2.9
	c0.4-0.4-0.2-0.6-0.6-0.7v-2.5c0,0,2,0.8,4.2,0.8c1.9,0,3.6-0.5,4.9-1.5c1.3-1,2.1-2.5,2.1-4.1C21,9.3,20.3,7.7,19,6.7z M17.5,14.2
	c-0.9,0.9-2.2,1.4-3.7,1.4c-1.7,0-3.1-0.3-4-0.8V7c1-0.7,2.7-1.1,4-1.1c1.6,0,2.9,0.6,3.7,1.5s1.3,2.1,1.3,3.5
	C18.8,12.3,18.3,13.4,17.5,14.2z"/>
</svg>
